<svg xmlns="http://www.w3.org/2000/svg" viewBox="0 0 64 64" role="img" aria-label="Bandi">
  <defs>
    <linearGradient id="bandiBlue" x1="12" x2="52" y1="8" y2="56" gradientUnits="userSpaceOnUse">
      <stop stop-color="#38BDF8"/>
      <stop offset="0.55" stop-color="#0EA5E9"/>
      <stop offset="1" stop-color="#0284C7"/>
    </linearGradient>
    <filter id="softShadow" x="-20%" y="-20%" width="140%" height="140%">
      <feDropShadow dx="0" dy="4" stdDeviation="4" flood-color="#0369A1" flood-opacity="0.22"/>
    </filter>
  </defs>
  <rect width="64" height="64" rx="18" fill="#F8FCFF"/>
  <g filter="url(#softShadow)">
    <path d="M24 11h14.5C47 11 53 16.5 53 24.1c0 4.8-2.5 8.7-6.8 10.8C51 37.1 54 41.5 54 47.1 54 56 47.2 61 37.7 61H24V11Z" fill="url(#bandiBlue)"/>
    <path d="M31.7 20.2h6.2c3.9 0 6.3 2.1 6.3 5.3 0 3.3-2.4 5.5-6.3 5.5h-6.2V20.2Zm0 18.7h7.3c3.9 0 6.5 2.2 6.5 5.7 0 3.4-2.6 5.6-6.5 5.6h-7.3V38.9Z" fill="#FFFFFF"/>
    <path d="M23.3 16.8C15.2 20.2 10 27.8 10 36.6c0 10 6.8 18.4 16 20.8V45.8c-3-1.9-4.8-5.3-4.8-9.2 0-4.1 2.1-7.7 5.3-9.6l-3.2-10.2Z" fill="#071826"/>
    <path d="M25.2 27.1c2.2-2.8 5.6-4.6 9.4-4.6h4" fill="none" stroke="#FFFFFF" stroke-width="4.6" stroke-linecap="round"/>
    <path d="M25.2 27.1c2.2-2.8 5.6-4.6 9.4-4.6h4" fill="none" stroke="#0EA5E9" stroke-width="2.2" stroke-linecap="round"/>
  </g>
</svg>
